<svg xmlns="http://www.w3.org/2000/svg" width="59" height="72"><g fill="#FFF"><path d="M58.34 20.55a3 3 0 0 0-2.4-1.2H17.27l-2.47-7.38H3.06a3 3 0 1 0 0 6h7.42l13.5 40.28h25.16a3 3 0 1 0 0-6H28.3l-1.73-5.15H49.7a3 3 0 0 0 2.89-2.17l6.25-21.75a3 3 0 0 0-.49-2.63zm-7.78 9.68h-4.81v-4.88h6.21l-1.4 4.88zm-17.62 0v-4.88h6.8v4.88h-6.8zm6.8 6v4.87h-6.8v-4.87h6.8zm-12.8-10.88v4.88h-6.02l-1.64-4.88h7.66zm-4.01 10.88h4.01v4.87h-2.38l-1.63-4.87zm22.82 4.87v-4.87h3.09l-1.4 4.87h-1.7z"/><circle cx="27.41" cy="66.09" r="5.78"/><circle cx="44.84" cy="66.09" r="5.78"/><path d="M29.34 9.7l7.54 5.5c.92.66 2.18.43 2.82-.5.65-.94.43-2.24-.48-2.9l-2.37-1.72 9.43-5.1L50.91 17h4.35L49.2 1.3A2.05 2.05 0 0 0 48.04.14a1.97 1.97 0 0 0-1.65.1L33.15 7.38l-3.03-2.2a1.99 1.99 0 0 0-2.74.4l-8.48 10.8c-.17.17-.3.39-.4.62h5.1l5.73-7.3z"/></g></svg>