<svg xmlns="http://www.w3.org/2000/svg" width="78" height="62"><g fill="#FFF"><path d="M16.13 29.75a16.13 16.13 0 1 0 0 32.25 16.13 16.13 0 0 0 0-32.25zm0 23.43a7.3 7.3 0 1 1 0-14.61 7.3 7.3 0 0 1 0 14.61zM60.85 45.87a8.06 8.06 0 1 0 0 16.13 8.06 8.06 0 0 0 0-16.13zm0 13.13a5.06 5.06 0 1 1 0-10.13 5.06 5.06 0 0 1 0 10.13z"/><path d="M77.9 49.73s-2.03-15.1-2.46-18.42c-.55-4.14-3.63-4.69-3.63-4.69L66 25.95V14h-3v5.83h-4v5.3l-11.81-1.38S37.44 3.69 36.63 1.87 33.5 0 33.5 0 11.12 2.38 8.75 3 5.31 6.17 5.31 6.17c-2.3 6.37-2.3 17.3-2.26 20.25A23.44 23.44 0 0 1 38.5 52.87h10.16a12.22 12.22 0 0 1 24.39 0H75c3.64 0 2.9-3.14 2.9-3.14zm-54.82-29.9h-6.96V6.17h6.96v13.66zm10 0h-6.96V6.17h6.96v13.66zM53.02 36H49v-7h4.02v7zm7 0H56v-7h4.02v7zm7 0H63v-7h4.02v7z"/></g></svg>